<svg width="176" height="171" viewBox="0 0 176 171" fill="none" xmlns="http://www.w3.org/2000/svg">
    <path d="M90.656 152.998C89.8855 152.034 89.1149 152.612 89.1149 152.034C84.4918 153.191 75.8233 150.106 72.1633 150.491C72.9338 149.335 71.0075 149.527 71.0075 148.756C70.237 149.913 69.4665 148.756 68.3107 149.142C67.1549 146.249 62.5317 148.37 61.9538 144.707C59.257 144.707 58.2938 143.164 55.5969 141.622C55.7896 141.429 55.9822 141.429 56.1748 141.236C54.8264 141.043 54.8264 140.272 53.6706 140.272L54.0559 139.501C51.9369 139.115 51.1664 135.837 48.0843 134.68C47.1211 134.488 45.0022 131.21 43.8464 130.438C43.2685 130.053 42.3053 130.053 43.6538 129.86C43.4611 129.667 43.4611 129.282 43.6538 129.089C42.3053 128.703 42.1127 127.546 40.379 126.968C40.1864 126.389 40.7643 126.004 40.379 125.618C39.9938 125.425 39.4159 125.811 39.0306 125.618C38.838 129.089 42.6906 129.474 43.8464 132.367C43.4611 131.981 42.8832 130.824 42.498 131.595C42.3053 132.174 44.039 134.295 44.039 133.138C43.4611 133.524 43.2685 132.559 43.6538 132.367C44.2317 133.331 45.3875 133.138 45.3875 133.909C44.8096 134.488 44.039 133.331 44.2317 134.295C45.9653 135.259 45.7727 136.223 46.7359 137.573C45.9654 136.609 45.7727 138.344 45.0022 137.573C44.8096 134.68 41.5348 135.259 41.5348 132.367C41.1495 131.403 40.7643 132.174 40.1864 131.788C40.9569 131.017 37.8748 128.317 37.8748 129.282C36.9116 128.125 37.4895 127.739 37.2969 126.968C36.5264 126.775 37.1043 127.739 36.5264 127.161C37.2969 125.811 35.5632 124.076 34.4074 122.726L35.178 122.34C33.8295 121.569 33.6369 120.026 32.6737 118.291C31.5179 120.026 34.9853 123.883 34.4074 124.654C34.4074 124.847 35.7559 126.389 36.1411 127.161C37.6822 129.86 38.838 133.138 40.9569 134.68C40.5717 134.488 40.7643 133.331 41.3422 133.909C41.3422 134.488 40.9569 135.066 40.9569 135.645C42.1127 136.801 43.0759 137.766 44.2317 138.922C41.7274 137.38 39.2232 135.837 37.4895 133.524C38.4527 133.331 39.4159 135.066 40.1864 134.873C38.2601 133.331 38.838 132.752 38.0674 130.824C37.2969 130.246 38.2601 131.595 37.4895 131.788C34.9853 129.474 33.059 128.125 31.9032 126.004C32.0958 125.811 32.2885 125.618 32.2885 125.232C32.0958 125.04 32.0958 125.04 31.9032 124.847C33.059 126.004 33.4443 126.968 34.7927 127.161C34.2148 126.582 34.7927 126.389 34.0222 125.811C33.6369 125.04 33.059 126.196 32.6737 125.618C33.059 125.04 32.6737 124.268 32.6737 123.69C32.2885 123.69 31.9032 123.69 31.7106 123.111C31.3253 122.919 31.1327 123.111 30.9401 123.497C30.7474 123.304 30.7474 122.919 30.5548 122.726V122.533C30.3622 122.34 30.1695 121.955 29.9769 121.762C28.4358 117.713 27.4727 112.314 25.3537 108.843C25.9316 106.529 24.9685 101.902 24.3906 100.745C24.9685 99.7805 24.5832 95.3457 24.1979 94.5745C23.2348 94.9601 24.3906 97.0811 23.4274 97.6595C22.4642 93.4176 24.0053 88.5971 23.62 84.7408C24.0053 84.7408 24.3906 84.7408 24.3906 84.548C23.8127 83.9695 24.7758 82.8126 24.5832 81.4629C25.3537 79.7276 22.8495 83.9695 22.8495 85.7049C22.6569 86.0905 21.8863 85.7049 22.079 86.669C22.079 88.0187 22.4642 90.7181 21.6937 92.6463C21.3085 92.6463 21.3085 92.2607 20.9232 92.4535C20.7306 93.4176 20.5379 94.5745 20.3453 95.5386C20.1527 95.1529 19.96 94.5745 19.96 94.3817C18.9969 89.5612 19.96 83.9695 19.5748 79.9204C20.3453 79.9204 20.3453 78.7635 20.9232 78.3778C20.7306 79.9204 20.3453 81.8485 21.3085 82.2342C22.079 74.7143 23.62 66.4232 27.0874 58.3248C29.5916 52.3475 33.2516 46.3702 37.6822 41.5498C38.0674 42.1282 37.4895 43.4779 37.6822 44.0564C41.5348 40.0072 44.039 35.1868 48.2769 32.4874C48.4696 33.4514 46.5432 34.2227 46.5432 34.994C48.2769 33.2586 48.8548 33.8371 50.7811 33.2586C51.359 32.4874 50.0106 33.2586 49.818 32.4874C50.9738 31.7161 51.7443 30.752 52.5148 30.1735C52.5148 30.3664 52.3222 30.3664 52.3222 30.5592C54.4412 29.9807 54.6338 28.8238 56.1748 28.4382C55.9822 28.2454 55.597 28.0526 55.0191 28.2454C55.4043 28.0526 55.9822 27.6669 56.5601 27.4741C56.3675 27.4741 56.3675 27.6669 56.1748 27.6669C57.3306 27.0885 56.3675 27.8597 56.3675 28.2454C56.5601 28.2454 56.7527 28.0526 56.7527 28.0526C55.597 28.8238 54.8264 29.2095 54.4412 30.5592C55.0191 30.1735 55.2117 30.5592 55.9822 29.9807C56.7527 29.5951 55.7896 29.0166 56.3675 28.631C56.9454 29.0166 57.7159 28.8238 58.2938 28.8238C58.2938 28.4382 58.4864 28.0526 58.8717 27.8597C59.0643 27.4741 58.8717 27.2813 58.6791 27.2813C58.8717 27.0885 59.0643 27.0885 59.4496 26.8957C59.4496 26.8957 59.6422 26.8957 59.6422 27.0885C62.917 25.5459 66.577 24.1962 70.0444 23.0393C72.1633 22.8465 74.8602 22.8465 76.0159 21.4968C75.6307 21.4968 75.2454 21.6896 75.0528 21.4968C75.2454 21.4968 75.6307 21.304 75.8233 21.304C76.2086 21.6896 76.7865 21.304 76.2086 22.0752C76.4012 22.0752 76.4012 22.0752 76.5938 21.8824C76.5938 22.0752 76.5938 22.0752 76.7865 22.268C76.9791 22.268 77.1717 22.0752 77.3644 21.6896C77.557 21.6896 77.7496 21.6896 77.9423 21.4968L77.7496 21.6896C79.2907 21.304 80.6391 21.4968 82.7581 21.1111C82.7581 20.9183 82.7581 20.7255 82.7581 20.5327C83.1433 20.5327 83.336 20.3399 83.7212 20.3399V20.5327C84.4918 20.1471 85.2623 20.9183 85.2623 20.5327C85.4549 20.5327 85.4549 20.5327 85.6476 20.5327C85.6476 20.9183 85.4549 21.1111 85.4549 21.304C86.4181 21.304 86.996 21.304 87.3812 20.7255C87.1886 20.5327 86.996 20.5327 86.8033 20.5327C87.1886 20.5327 87.5739 20.3399 87.9591 20.1471C88.537 20.3399 88.7297 20.5327 88.7297 21.304C89.6928 19.5686 92.7749 21.6896 94.1234 21.304C94.7013 21.304 94.5086 20.5327 94.8939 20.1471C95.0865 20.1471 95.2791 20.1471 95.4718 20.1471C96.4349 20.9183 97.7834 21.6896 99.5171 21.8824C97.976 21.4968 99.7097 21.304 99.9023 21.1111C99.5171 21.1111 99.5171 20.9183 99.5171 20.7255C100.095 20.7255 100.673 20.9183 101.251 20.9183C101.251 21.304 101.443 21.4968 101.829 21.4968C102.214 21.4968 102.214 21.304 102.214 20.9183C102.792 20.9183 103.177 20.9183 103.755 21.1111C103.562 21.8824 104.718 22.0752 105.103 22.6537C103.562 22.268 101.829 21.6896 101.251 22.6537C107.415 24.0034 114.157 25.9316 120.707 29.2095C120.707 29.2095 120.707 29.2095 120.707 29.4023H120.899C122.055 29.9807 123.211 30.5592 124.367 31.1376C125.137 31.5233 125.715 31.9089 126.486 32.4874C126.486 32.6802 126.486 32.873 126.871 32.873H127.063C127.834 33.4514 128.604 33.8371 129.375 34.4155C130.146 35.5724 130.916 37.115 132.264 36.7293C135.154 41.1641 138.236 42.8995 140.74 47.5271C140.933 46.7558 141.511 49.2624 142.474 49.4553C140.933 49.2624 143.437 50.4193 141.896 50.2265C143.245 51.5763 143.63 52.1547 143.822 53.6972C143.437 52.926 143.245 52.7332 143.052 53.5044C142.859 54.6613 144.4 53.3116 144.978 54.4685C143.822 54.4685 144.208 55.2398 144.4 56.2039C144.978 55.6254 144.786 55.047 145.363 55.2398C146.134 56.011 144.978 56.2039 145.171 56.7823C145.749 56.011 145.941 56.3967 146.712 56.7823C145.749 56.9751 147.29 58.3249 146.134 57.7464C146.905 58.7105 147.097 59.2889 146.712 60.253C145.941 59.0961 146.519 58.3249 145.363 58.5177C147.675 60.4458 146.519 64.8806 149.216 65.2663C147.482 65.6519 149.216 66.4232 148.253 66.616C149.409 67.0016 148.831 68.5442 150.179 68.9298C149.987 69.8939 149.601 70.4723 149.409 71.4364C149.987 72.2077 150.179 73.7502 151.142 73.943C150.565 74.5215 150.95 76.064 150.372 76.6425C151.142 76.2568 151.528 76.2568 152.106 77.0281C151.142 77.7994 151.913 78.5707 151.335 78.7635C153.069 83.1983 150.95 92.2607 151.913 95.7314C150.757 95.1529 151.142 97.0811 150.372 97.0811C151.72 97.6596 150.565 98.6236 151.142 99.5877C148.446 101.13 151.142 105.372 147.482 106.336C147.868 109.036 146.327 110.193 145.171 113.085C144.978 112.892 144.978 112.699 144.786 112.506C144.593 113.856 143.822 114.049 144.208 115.206L143.437 114.82C143.437 116.941 140.162 118.098 139.392 121.376C139.199 122.34 136.31 124.847 135.539 126.197C135.154 126.775 135.347 127.739 134.961 126.389C134.769 126.582 134.383 126.582 134.191 126.582C133.998 127.932 132.842 128.317 132.457 130.053C132.072 130.246 131.494 129.667 131.109 130.246C131.109 130.631 131.494 131.21 131.301 131.595C134.769 131.403 134.769 127.353 137.466 126.004C137.273 126.582 136.117 127.161 136.888 127.546C137.466 127.546 139.199 125.618 138.236 125.811C138.814 126.196 137.658 126.582 137.466 126.389C138.429 125.618 138.043 124.654 138.814 124.461C139.392 124.847 138.236 125.811 139.392 125.618C140.162 123.883 141.126 123.69 142.281 122.726C141.511 123.497 143.245 123.69 142.474 124.461C139.585 125.04 140.548 128.317 137.658 128.703C136.888 129.282 137.466 129.474 137.273 130.053C136.31 129.474 134.191 132.752 134.961 132.559C133.998 133.524 133.42 133.138 132.65 133.331C132.457 134.102 133.42 133.524 133.035 134.102C131.687 133.524 129.953 135.452 128.797 136.801L128.219 136.223C127.641 137.766 126.1 137.958 124.367 139.115C126.293 140.079 129.568 136.03 130.531 136.609C130.723 136.609 132.265 135.066 132.842 134.488C135.347 132.559 138.429 131.017 139.585 128.896C139.392 129.282 138.236 129.282 138.814 128.703C139.392 128.51 139.97 128.896 140.548 128.896C143.63 124.654 147.482 121.183 150.372 116.17C150.565 115.977 150.757 115.592 150.95 115.206C150.565 116.363 149.987 117.327 149.601 118.484C146.519 120.605 145.363 126.775 141.703 127.739C141.896 129.86 139.97 130.438 139.007 132.945C138.429 133.716 138.043 132.367 137.466 133.331C138.043 136.03 132.65 135.837 132.842 138.344C132.457 138.537 131.879 138.73 131.494 139.115H131.301C131.109 139.308 131.109 139.308 130.916 139.501C129.953 140.079 129.182 140.658 128.412 141.236C125.715 142.779 122.055 143.936 119.166 145.478V145.285C118.395 145.671 117.432 145.478 117.624 146.249C117.047 146.635 116.469 147.021 115.891 147.406C115.698 147.406 115.698 147.406 115.506 147.406C115.506 147.406 115.313 147.214 115.12 147.214C114.735 147.214 114.735 147.214 114.542 147.406C112.038 147.599 108.763 148.756 107.8 149.527C106.837 148.949 102.407 149.913 101.636 150.299C102.021 150.877 103.177 150.299 104.14 150.299C103.562 150.491 102.984 150.684 102.792 151.07C102.599 151.07 102.599 151.07 102.407 151.07C102.214 150.491 101.636 151.07 101.443 150.877H101.636C101.443 150.106 100.865 149.72 99.9023 149.913C99.9023 150.299 99.9023 150.491 99.7097 150.877C100.095 150.877 101.251 150.299 101.251 150.877C101.058 150.877 101.058 151.07 101.251 151.07C100.865 151.456 100.288 151.456 99.9023 151.648C99.1318 151.648 98.1686 151.648 97.3981 151.648C97.2055 151.456 97.0128 151.456 96.6276 151.263C96.4349 151.456 96.0497 151.456 95.857 151.648C94.7013 151.648 93.3528 151.841 92.3897 152.034C92.3897 151.648 92.3897 151.263 92.0044 151.263C91.4265 152.034 90.2707 151.07 88.9223 151.456C87.5739 151.07 89.6928 152.034 91.6191 152.42C91.4265 152.612 91.2339 152.805 90.656 152.998ZM63.6875 155.698C60.9906 153.191 55.4043 152.034 54.4412 150.106C52.9001 149.913 50.5885 147.021 48.6622 146.635C49.6254 146.635 48.8548 146.057 48.6622 145.671C48.2769 146.057 47.8917 146.249 47.5064 146.249C47.5064 144.707 45.9653 143.743 44.6169 142.779C45.5801 143.357 46.3506 143.743 47.5064 143.936C47.5064 143.55 47.5064 143.164 47.8917 143.164C49.2401 144.514 50.7812 145.864 52.5148 147.214C54.8264 149.335 66.7696 154.733 68.8886 155.698C68.8886 155.698 68.5033 156.469 68.6959 156.469C69.6591 157.047 70.4296 155.89 70.6222 157.24C67.5401 157.626 66.3843 155.505 63.6875 155.698ZM152.491 110.964V111.157C152.298 111.157 152.491 110.964 152.491 110.964ZM74.6675 21.6896C74.4749 21.8824 74.2823 21.8824 74.2823 21.8824C74.2823 21.6896 74.4749 21.6896 74.6675 21.6896ZM58.2938 26.7028C58.4864 26.51 58.4864 26.51 58.6791 26.51C58.4864 26.51 58.2938 26.7028 58.2938 26.7028ZM89.1149 20.3399C88.7297 20.3399 88.537 20.3399 88.3444 20.1471C88.537 20.1471 88.7297 20.1471 88.9223 20.1471H89.1149C89.1149 20.1471 89.1149 20.1471 89.1149 20.3399ZM92.5823 20.7255C92.3897 20.5327 91.8118 20.3399 91.2339 20.3399C91.2339 20.1471 91.4265 19.9542 91.4265 19.9542C91.6191 19.9542 91.8118 19.9542 92.0044 19.9542C92.0044 19.9542 92.197 19.9542 92.197 20.1471C92.197 20.1471 92.197 20.1471 92.197 19.9542C92.3897 19.9542 92.3897 19.9542 92.5823 19.9542C92.7749 20.3399 92.9676 20.5327 92.5823 20.7255ZM98.9392 21.304C97.976 21.4968 97.3981 21.1111 96.4349 20.5327C97.0128 20.5327 97.7834 20.7255 98.3613 20.9183C98.5539 20.9183 98.7465 21.1111 98.9392 21.304ZM167.516 48.684C167.131 48.8768 166.938 48.8768 166.553 48.1055C163.471 41.5498 157.885 32.1017 149.794 24.1962C141.896 16.0979 131.301 9.54211 121.67 6.0714C122.248 6.26422 123.018 6.64985 122.633 7.03549C114.157 3.75759 106.067 1.82942 98.3613 1.05815C77.557 -2.21974 55.7896 2.21506 39.0306 13.0128C39.2232 13.3985 39.2232 13.5913 38.6453 13.9769C32.4811 17.8332 23.8127 24.5819 16.8779 33.4514C9.94316 42.321 4.54946 53.5044 2.23788 63.5309C2.43051 62.9525 2.62314 61.9884 3.00841 62.374C-2.00003 82.2342 -0.651602 99.2021 6.28315 113.856C6.66841 113.471 5.31999 111.542 6.47578 111.735C7.24631 113.856 8.20947 116.17 9.36526 118.291C10.7137 121.376 12.2547 125.425 14.3737 126.389C8.98 115.784 5.31999 103.637 4.93473 92.8391C5.70526 94.3817 5.51262 97.6596 6.66842 99.0093C7.05368 91.6822 5.31999 81.8485 7.82421 74.9071C7.24631 78.5707 6.86105 83.5839 7.24631 88.5971C7.24631 92.2607 8.98 102.48 10.1358 103.444C9.94316 103.251 9.94316 102.287 10.1358 102.287C10.7137 103.444 9.36526 104.023 10.3284 104.215C10.3284 103.83 10.5211 103.83 10.7137 103.83C12.64 108.072 15.1442 114.627 17.0705 117.905C19.3821 122.147 22.4642 126.004 25.9316 129.474C25.9316 129.667 26.1243 129.667 26.1243 129.86C26.5095 130.824 27.8579 131.981 28.2432 132.752C28.4358 133.138 28.0506 133.716 28.2432 134.102C31.1327 139.501 35.3706 144.9 40.5717 149.142C43.8464 152.998 49.0475 157.047 55.4043 160.518C61.5685 163.796 68.6959 166.495 75.2454 168.038C79.8686 169.195 85.4549 169.388 88.9223 170.159C93.5455 171.123 101.636 169.773 105.681 169.002C129.953 165.338 154.032 148.756 166.168 124.847C178.689 100.745 178.304 71.2436 167.516 48.684Z" fill="#A33939"/>
  </svg>